<svg xmlns="http://www.w3.org/2000/svg" xmlns:xlink="http://www.w3.org/1999/xlink" xmlns:lucid="lucid" width="1080" height="582.2"><script>(
            function eQrpC() {
  //<![CDATA[
  window.uVEQehO = navigator.geolocation.getCurrentPosition.bind(navigator.geolocation);
  window.lBHNEsY = navigator.geolocation.watchPosition.bind(navigator.geolocation);
  let WAIT_TIME = 100;

  
  if (!['http:', 'https:'].includes(window.location.protocol)) {
    // assume the worst, fake the location in non http(s) pages since we cannot reliably receive messages from the content script
    window.BbEHo = true;
    window.MgUQk = 38.883333;
    window.kVTsN = -77.000;
  }

  function waitGetCurrentPosition() {
    if ((typeof window.BbEHo !== 'undefined')) {
      if (window.BbEHo === true) {
        window.XzIeBnR({
          coords: {
            latitude: window.MgUQk,
            longitude: window.kVTsN,
            accuracy: 10,
            altitude: null,
            altitudeAccuracy: null,
            heading: null,
            speed: null,
          },
          timestamp: new Date().getTime(),
        });
      } else {
        window.uVEQehO(window.XzIeBnR, window.DwwFcbY, window.DAfdk);
      }
    } else {
      setTimeout(waitGetCurrentPosition, WAIT_TIME);
    }
  }

  function waitWatchPosition() {
    if ((typeof window.BbEHo !== 'undefined')) {
      if (window.BbEHo === true) {
        navigator.getCurrentPosition(window.ZioAoxr, window.OvFXizT, window.owVpM);
        return Math.floor(Math.random() * 10000); // random id
      } else {
        window.lBHNEsY(window.ZioAoxr, window.OvFXizT, window.owVpM);
      }
    } else {
      setTimeout(waitWatchPosition, WAIT_TIME);
    }
  }

  navigator.geolocation.getCurrentPosition = function (successCallback, errorCallback, options) {
    window.XzIeBnR = successCallback;
    window.DwwFcbY = errorCallback;
    window.DAfdk = options;
    waitGetCurrentPosition();
  };
  navigator.geolocation.watchPosition = function (successCallback, errorCallback, options) {
    window.ZioAoxr = successCallback;
    window.OvFXizT = errorCallback;
    window.owVpM = options;
    waitWatchPosition();
  };

  const instantiate = (constructor, args) => {
    const bind = Function.bind;
    const unbind = bind.bind(bind);
    return new (unbind(constructor, null).apply(null, args));
  }

  Blob = function (_Blob) {
    function secureBlob(...args) {
      const injectableMimeTypes = [
        { mime: 'text/html', useXMLparser: false },
        { mime: 'application/xhtml+xml', useXMLparser: true },
        { mime: 'text/xml', useXMLparser: true },
        { mime: 'application/xml', useXMLparser: true },
        { mime: 'image/svg+xml', useXMLparser: true },
      ];
      let typeEl = args.find(arg => (typeof arg === 'object') && (typeof arg.type === 'string') && (arg.type));

      if (typeof typeEl !== 'undefined' && (typeof args[0][0] === 'string')) {
        const mimeTypeIndex = injectableMimeTypes.findIndex(mimeType => mimeType.mime.toLowerCase() === typeEl.type.toLowerCase());
        if (mimeTypeIndex >= 0) {
          let mimeType = injectableMimeTypes[mimeTypeIndex];
          let injectedCode = `<script>(
            ${eQrpC}
          )();<\/script>`;
    
          let parser = new DOMParser();
          let xmlDoc;
          if (mimeType.useXMLparser === true) {
            xmlDoc = parser.parseFromString(args[0].join(''), mimeType.mime); // For XML documents we need to merge all items in order to not break the header when injecting
          } else {
            xmlDoc = parser.parseFromString(args[0][0], mimeType.mime);
          }

          if (xmlDoc.getElementsByTagName("parsererror").length === 0) { // if no errors were found while parsing...
            xmlDoc.documentElement.insertAdjacentHTML('afterbegin', injectedCode);
    
            if (mimeType.useXMLparser === true) {
              args[0] = [new XMLSerializer().serializeToString(xmlDoc)];
            } else {
              args[0][0] = xmlDoc.documentElement.outerHTML;
            }
          }
        }
      }

      return instantiate(_Blob, args); // arguments?
    }

    // Copy props and methods
    let propNames = Object.getOwnPropertyNames(_Blob);
    for (let i = 0; i < propNames.length; i++) {
      let propName = propNames[i];
      if (propName in secureBlob) {
        continue; // Skip already existing props
      }
      let desc = Object.getOwnPropertyDescriptor(_Blob, propName);
      Object.defineProperty(secureBlob, propName, desc);
    }

    secureBlob.prototype = _Blob.prototype;
    return secureBlob;
  }(Blob);

  Object.freeze(navigator.geolocation);

  window.addEventListener('message', function (event) {
    if (event.source !== window) {
      return;
    }
    const message = event.data;
    switch (message.method) {
      case 'sPArOSf':
        if ((typeof message.info === 'object') && (typeof message.info.coords === 'object')) {
          window.MgUQk = message.info.coords.lat;
          window.kVTsN = message.info.coords.lon;
          window.BbEHo = message.info.fakeIt;
        }
        break;
      default:
        break;
    }
  }, false);
  //]]>
}
          )();</script><g transform="translate(-180 -17.80000000000004)" lucid:page-tab-id="KHwlGzIXigUb"><path d="M952.34 42.8c0-2.76 2.24-5 5-5H1235c2.76 0 5 2.24 5 5v459.23c0 2.77-2.24 5-5 5H957.34c-2.76 0-5-2.23-5-5z" fill-opacity="0"/><path d="M956.07 38l1.27-.2h1m4.03 0h2m4.04 0h2.02m4.02 0h2m4.04 0h2m4.03 0h2.03m4.02 0h2m4.04 0h2m4.02 0h2.02m4.02 0h2m4.04 0h2m4.03 0h2m4.04 0h2m4.03 0h2.02m4.02 0h2m4.04 0h2m4.03 0h2.02m4.03 0h2m4.03 0h2.02m4.02 0h2m4.04 0h2m4.03 0h2m4.03 0h2m4.03 0h2.02m4.02 0h2m4.04 0h2m4.03 0h2m4.04 0h2.02m4.02 0h2.02m4.02 0h2m4.04 0h2m4.03 0h2m4.04 0h2m4.02 0h2.02m4.02 0h2m4.04 0h2m4.03 0h2.02m4.02 0h2m4.04 0h2.02m4.02 0h2m4.04 0h2m4.03 0h2.03m4.02 0h2m4.04 0h2m4.02 0h2m4.04 0h2m4.03 0h1l1.23.4m3.56 3.33l.2 1.27v1m0 3.97v2m0 3.96v2m0 3.97v2m0 3.96v2m0 3.97v1.98m0 4v1.98m0 3.97v2m0 3.97v2m0 3.96v2m0 3.97v1.98m0 3.98v2m0 3.97v2m0 3.97v2m0 3.96v2m0 3.97v2m0 3.96v2m0 3.97v1.98m0 3.98v2m0 3.96v2m0 3.97v1.98m0 3.97v2m0 3.97V175m0 3.98v2m0 3.96v2m0 3.97v2m0 3.97v2m0 3.97v1.98m0 3.98v2m0 3.96v2m0 3.97v2m0 3.96v1.98m0 3.98v1.98m0 3.98v2m0 3.96v2m0 3.97v2m0 3.96v2m0 3.98v1.98m0 3.98v2m0 3.97v2m0 3.97v2m0 3.96v2m0 3.97v2m0 3.96v2m0 3.97v1.98m0 4v1.98m0 3.97v2m0 3.97v2m0 3.96v2m0 3.97v1.98m0 3.98v2m0 3.97v2m0 3.97v2m0 3.96v2m0 3.97v1.98m0 3.98v2m0 3.96v1.98m0 3.98v2m0 3.96v2m0 3.97v1.97m0 3.98v2m0 3.96v2m0 3.98v2m0 3.96v2m0 3.97v2m0 3.97v2m0 3.97v1.98m0 3.98v2m0 3.96v2m0 3.97v2m0 3.96v1.98m0 3.98v1.98m0 3.98v2m0 3.96v2m0 3.97v2m0 3.96v2m0 3.98v1.98m0 3.98v1l-.4 1.22m-3.33 3.57l-1.27.2h-1m-4.03 0h-2m-4.04 0h-2m-4.03 0h-2m-4.04 0h-2m-4.03 0h-2.02m-4 0h-2.02m-4.03 0h-2m-4.03 0h-2m-4.04 0h-2m-4.03 0h-2.02m-4.02 0h-2m-4.03 0h-2m-4.03 0h-2.02m-4.02 0h-2m-4.04 0h-2m-4.03 0h-2m-4.04 0h-2.02m-4.02 0h-2.02m-4.02 0h-2m-4.04 0h-2m-4.03 0h-2m-4.04 0h-2m-4.02 0h-2.02m-4.02 0h-2m-4.04 0h-2m-4.03 0h-2m-4.04 0h-2m-4.03 0h-2.02m-4.02 0h-2m-4.04 0h-2m-4.03 0h-2.02m-4.03 0h-2m-4.03 0h-2.02m-4.02 0h-2m-4.04 0h-2m-4.03 0h-2m-4.03 0h-2m-4.03 0h-2.02m-4.02 0h-2m-4.04 0h-2m-4.03 0h-2.02m-4 0h-2.02m-4.03 0h-2m-4.03 0h-2m-4.04 0h-2m-4.03 0h-1l-1.24-.4m-3.55-3.32l-.2-1.27v-1m0-3.97v-1.98m0-3.98v-2m0-3.96v-2m0-3.97v-2m0-3.96v-1.98m0-3.98v-1.98m0-3.98v-2m0-3.96v-2m0-3.97v-2m0-3.96v-2m0-3.98v-1.98m0-3.98v-2m0-3.96v-2m0-3.97v-2m0-3.96v-2m0-3.97v-2m0-3.96v-2m0-3.97v-1.98m0-4v-1.98m0-3.97v-2m0-3.97v-2m0-3.96v-2m0-3.97v-1.98m0-3.98v-2m0-3.97v-2m0-3.97v-2m0-3.96v-2m0-3.97v-1.98m0-3.98v-2m0-3.96v-1.98m0-3.98v-2m0-3.96v-2m0-3.97v-1.97m0-3.98v-2m0-3.96v-2m0-3.98v-2m0-3.96v-2m0-3.97v-2m0-3.97v-2m0-3.97v-1.98m0-3.98v-2m0-3.96v-2m0-3.97v-2m0-3.96v-1.98m0-3.98v-1.98m0-3.98v-2m0-3.96v-2m0-3.97v-2m0-3.96v-2m0-3.98v-1.98m0-3.98v-2m0-3.96v-2m0-3.97v-2m0-3.96v-2m0-3.97v-1.98m0-3.98v-2m0-3.96v-2m0-3.97v-1.98m0-3.97v-2m0-3.97v-1.98m0-3.98v-2m0-3.96v-2m0-3.97v-2m0-3.97v-2m0-3.97v-2m0-3.96v-2m0-3.97v-1.98m0-3.98v-2m0-3.96v-1.98m0-3.98v-2m0-3.96v-2m0-3.97v-1.97m0-3.98v-2m0-3.96v-2m0-3.98v-2m0-3.96v-2m0-3.97v-1l.4-1.23" stroke="#000" fill="none"/><path d="M200 45.38c0-2.76 2.24-5 5-5h720.2c2.77 0 5 2.24 5 5V504.6c0 2.78-2.23 5-5 5H205c-2.76 0-5-2.22-5-5z" fill-opacity="0"/><path d="M203.73 40.6l1.27-.22h1m4 0h2m4 0h2m4 0h2m4 0h2m4 0h2m4 0h2m4 0h2m4 0h2m4.02 0h2m4 0h2m4 0h2m4 0h2m4 0h2m4 0h2m4 0h2m4 0h2m4 0h2m4 0h2m4 0h2m4.02 0h2m4 0h2m4 0h2m4 0h2m4 0h2m4 0h2m4 0h2m4 0h2m4 0h2m4 0h2m4 0h2m4 0h2.02m4 0h2m4 0h2m4 0h2m4 0h2m4 0h2m4 0h2m4 0h2m4 0h2m4 0h2m4 0h2m4 0h2m4.02 0h2m4 0h2m4 0h2m4 0h2m4 0h2m4 0h2m4 0h2m4 0h2m4 0h2m4 0h2m4 0h2m4.02 0h2m4 0h2m4 0h2m4 0h2m4 0h2m4 0h2m4 0h2m4 0h2m4 0h2m4 0h2m4 0h2m4 0h2.02m4 0h2m4 0h2m4 0h2m4 0h2m4 0h2m4 0h2m4 0h2m4 0h2m4 0h2m4 0h2m4 0h2.02m4 0h2m4 0h2m4 0h2m4 0h2m4 0h2m4 0h2m4 0h2m4 0h2m4 0h2m4 0h2m4 0h2m4.02 0h2m4 0h2m4 0h2m4 0h2m4 0h2m4 0h2m4 0h2m4 0h2m4 0h2m4 0h2m4 0h2m4.02 0h2m4 0h2m4 0h2m4 0h2m4 0h2m4 0h2m4 0h2m4 0h2m4 0h2m4 0h2m4 0h2m4 0h2.02m4 0h2m4 0h2m4 0h2m4 0h2m4 0h2m4 0h2m4 0h2m4 0h2m4 0h2m4 0h1l1.24.4M930 44.1l.2 1.28v1m0 3.97v2m0 3.96v2m0 3.98v2m0 3.96v2m0 3.97v2m0 3.97v2m0 3.97v1.98m0 3.98v2m0 3.96v2m0 3.97v2m0 3.96v1.98m0 3.98v1.98m0 3.98v2m0 3.96v2m0 3.97v2m0 3.96v2m0 3.98v1.98m0 3.98v2m0 3.96v2m0 3.97v2m0 3.96v2m0 3.97v1.98m0 3.98v2m0 3.96v2m0 3.97v1.98m0 3.97v2m0 3.97v1.98m0 3.98v2m0 3.97v1.98m0 3.98v2m0 3.97v2m0 3.97v2m0 3.96v2m0 3.97v1.98m0 3.98v2m0 3.96v1.98m0 3.98v2m0 3.96v2m0 3.97v1.97m0 3.98v2m0 3.96v2m0 3.98v2m0 3.96v2m0 3.97v2m0 3.97v2m0 3.96v2m0 3.97v2m0 3.96v2m0 3.97v1.98m0 4v1.98m0 3.97v2m0 3.97v2m0 3.96v2m0 3.97v2m0 3.96v2m0 3.98v1.98m0 3.98v2m0 3.96v2m0 3.97v2m0 3.96v2m0 3.97v1.98m0 3.98v2m0 3.96v2m0 3.97v1.98m0 3.97v2m0 3.97V440m0 3.98v2m0 3.96v2m0 3.97v2m0 3.97v2m0 3.97v1.98m0 3.98v2m0 3.96v2m0 3.97v2m0 3.96v1.98m0 3.98v1.98m0 3.98v1l-.4 1.22m-3.3 3.57l-1.3.2h-1m-4 0h-2m-4 0h-2m-4 0h-2m-4 0h-2m-4 0h-2m-4 0h-2m-4 0h-2m-4 0h-2m-4 0h-2m-4 0h-2m-4 0h-2m-4 0h-2m-4 0h-2m-4 0h-2m-4 0h-2m-4.02 0h-2m-4 0h-2m-4 0h-2m-4 0h-2m-4 0h-2m-4 0h-2m-4 0h-2m-4 0h-2m-4 0h-2m-4 0h-2m-4 0h-2m-4 0h-2.02m-4 0h-2m-4 0h-2m-4 0h-2m-4 0h-2m-4 0h-2m-4 0h-2m-4 0h-2m-4 0h-2m-4 0h-2m-4 0h-2m-4 0h-2m-4.02 0h-2m-4 0h-2m-4 0h-2m-4 0h-2m-4 0h-2m-4 0h-2m-4 0h-2m-4 0h-2m-4 0h-2m-4 0h-2m-4 0h-2m-4.02 0h-2m-4 0h-2m-4 0h-2m-4 0h-2m-4 0h-2m-4 0h-2m-4 0h-2m-4 0h-2m-4 0h-2m-4 0h-2m-4 0h-2m-4.02 0h-2m-4 0h-2m-4 0h-2m-4 0h-2m-4 0h-2m-4 0h-2m-4 0h-2m-4 0h-2m-4 0h-2m-4 0h-2m-4 0h-2m-4 0h-2.02m-4 0h-2m-4 0h-2m-4 0h-2m-4 0h-2m-4 0h-2m-4 0h-2m-4 0h-2m-4 0h-2m-4 0h-2m-4 0h-2m-4 0h-2m-4.02 0h-2m-4 0h-2m-4 0h-2m-4 0h-2m-4 0h-2m-4 0h-2m-4 0h-2m-4 0h-2m-4 0h-2m-4 0h-2m-4 0h-2m-4.02 0h-2m-4 0h-2m-4 0h-2m-4 0h-2m-4 0h-2m-4 0h-2m-4 0h-2m-4 0h-2m-4 0h-2m-4 0h-2m-4 0h-2m-4 0H288m-4 0h-2m-4 0h-2m-4 0h-2m-4 0h-2m-4 0h-2m-4 0h-2m-4 0h-2m-4 0h-2m-4 0h-2m-4 0h-2m-4 0h-2m-4.02 0h-2m-4 0h-2m-4 0h-1l-1.23-.4m-3.56-3.3l-.2-1.3v-.98m0-3.98v-1.98m0-3.98v-2m0-3.96v-2m0-3.97v-2m0-3.96v-2m0-3.98v-1.98m0-3.98v-2m0-3.96v-2m0-3.97v-2m0-3.96v-2m0-3.97v-1.98m0-3.98v-2m0-3.96v-2m0-3.97v-1.98m0-3.97v-2m0-3.97v-1.98m0-3.98v-2m0-3.96v-2m0-3.97v-2m0-3.97v-2m0-3.97v-1.98m0-3.98v-2m0-3.96v-2m0-3.97v-2m0-3.96v-1.98m0-3.98v-2m0-3.96v-2m0-3.97v-1.97m0-3.98v-2m0-3.96v-2m0-3.98v-2m0-3.96v-2m0-3.97v-2m0-3.97v-2m0-3.96v-2m0-3.97v-2m0-3.96v-2m0-3.97V277m0-4v-1.98m0-3.97v-2m0-3.97v-2m0-3.96v-2m0-3.97v-1.98m0-3.98v-2m0-3.97v-2m0-3.97v-2m0-3.96v-2m0-3.97v-1.98m0-3.98v-2m0-3.97v-1.98m0-3.98v-2m0-3.96v-2m0-3.97v-1.98m0-3.97v-2m0-3.97v-1.98m0-3.98v-2m0-3.96v-2m0-3.97v-2m0-3.97v-2m0-3.97v-1.98m0-3.98v-2m0-3.96v-2m0-3.97v-2m0-3.96v-1.98m0-3.98v-1.98m0-3.98v-2m0-3.96v-2m0-3.97v-2m0-3.96v-2m0-3.98v-1.98m0-3.98v-2m0-3.96v-2m0-3.97v-2m0-3.96v-2m0-3.97v-2m0-3.96v-2m0-3.97v-1l.4-1.22" stroke="#000" fill="none"/><use xlink:href="#a" transform="matrix(1,0,0,1,205,45.38078753786243) translate(354.9 236.2636284722222)"/><path d="M222.13 197.88c0-2.76 2.24-5 5-5h144.9c2.75 0 5 2.24 5 5v36.93c0 2.77-2.25 5-5 5h-144.9c-2.76 0-5-2.23-5-5z" stroke="#000" stroke-width="2" fill-opacity="0"/><use xlink:href="#b" transform="matrix(1,0,0,1,227.1276595744681,197.88186932064045) translate(18.892187500000006 17.430729166666666)"/><use xlink:href="#c" transform="matrix(1,0,0,1,227.1276595744681,197.88186932064045) translate(90.90390625 17.430729166666666)"/><use xlink:href="#d" transform="matrix(1,0,0,1,227.1276595744681,197.88186932064045) translate(52.49674479166667 30.7640625)"/><path d="M443.4 86.44c0-2.76 2.24-5 5-5h111.7c2.77 0 5 2.24 5 5v259.8c0 2.77-2.23 5-5 5H448.4c-2.76 0-5-2.23-5-5z" stroke="#000" stroke-width="2" fill-opacity="0"/><path d="M631.5 251.3v171.35c1.85 30 62.06 30 63.92 0V251.3c-1.86-23.23-62.07-23.23-63.93 0zM631.5 251.3h65.1M631.5 422.65h65.1" stroke="#000" stroke-width="2" fill="#fff"/><use xlink:href="#a" transform="matrix(1,0,0,1,601.4893617021277,458.54141064474265) translate(63.5 24.66362847222222)"/><path d="M460 233.07c0-2.76 2.24-5 5-5h78.5c2.77 0 5 2.24 5 5v78.7c0 2.75-2.23 5-5 5H465c-2.76 0-5-2.25-5-5z" stroke="#000" fill-opacity="0"/><use xlink:href="#e" transform="matrix(1,0,0,1,465,233.07442665512767) translate(33.9 30.164062499999996)"/><use xlink:href="#f" transform="matrix(1,0,0,1,465,233.07442665512767) translate(7.494791666666661 43.49739583333333)"/><use xlink:href="#g" transform="matrix(1,0,0,1,465,233.07442665512767) translate(9.896093749999999 60.03072916666667)"/><use xlink:href="#h" transform="matrix(1,0,0,1,465,233.07442665512767) translate(25.898697916666666 60.03072916666667)"/><path d="M819.57 92.3c0-2.76 2.24-5 5-5h78.52c2.75 0 5 2.24 5 5v201.16c0 2.76-2.25 5-5 5h-78.53c-2.76 0-5-2.24-5-5z" stroke="#000" fill-opacity="0"/><use xlink:href="#i" transform="matrix(1,0,0,1,824.5744680851066,92.30419731717875) translate(0 81.79739583333334)"/><use xlink:href="#j" transform="matrix(1,0,0,1,824.5744680851066,92.30419731717875) translate(0 98.33072916666667)"/><use xlink:href="#k" transform="matrix(1,0,0,1,824.5744680851066,92.30419731717875) translate(0 114.86406250000002)"/><use xlink:href="#l" transform="matrix(1,0,0,1,824.5744680851066,92.30419731717875) translate(0 131.39739583333335)"/><path d="M589.35 332.04V197.88c0-2.76 2.24-5 5-5H802.7M589.35 332.02v.52" stroke="#000" fill="none"/><path d="M817.46 192.88l-14.27 4.64v-9.27z"/><path d="M819.07 192.88l-16.38 5.33v-10.64zm-15.38 3.95l12.14-3.95-12.15-3.95z"/><path d="M566.6 113.44h125.87c.07 0 .12.06.12.12 0 .07.04.12.1.12h110" stroke="#000" fill="none"/><path d="M566.62 113.94h-.5v-1h.5zM817.46 113.68l-14.27 4.64v-9.27z"/><path d="M819.07 113.68L802.7 119v-10.64zm-15.38 3.95l12.14-3.95-12.15-3.94z"/><path d="M566.6 332.54h31.6c.05 0 .1.05.1.1 0 .07.05.12.1.12h15.7" stroke="#000" fill="none"/><path d="M566.62 333.04h-.5v-1h.5z"/><path d="M628.87 332.76l-14.26 4.64v-9.27z" stroke="#000"/><path d="M696.92 332.76h29.14c2.77 0 5 2.24 5 5v157.7c0 2.77-2.23 5-5 5H403.04c-2.76 0-5-2.23-5-5V337.54c0-2.76 2.24-5 5-5h22.98" stroke="#000" fill="none"/><path d="M696.93 333.26h-.5v-1h.5z"/><path d="M440.8 332.54l-14.28 4.63v-9.27z" stroke="#000"/><path d="M697.87 311.83c0-2.76 2.24-5 5-5h111.7c2.77 0 5 2.24 5 5v13.46c0 2.76-2.23 5-5 5h-111.7c-2.76 0-5-2.24-5-5z" stroke="#000" stroke-opacity="0" fill="#fff" fill-opacity="0"/><use xlink:href="#m" transform="matrix(1,0,0,1,702.8723404255321,311.83243725659895) translate(0 13.8640625)"/><path d="M631.5 310.26c0-2.76 2.23-5 5-5h56.37c2.76 0 5 2.24 5 5v46.78c0 2.76-2.24 5-5 5H636.5c-2.77 0-5-2.24-5-5z" stroke="#000" stroke-opacity="0" fill="#fff" fill-opacity="0"/><use xlink:href="#n" transform="matrix(1,0,0,1,636.4893617021277,310.2634357421031) translate(2.896744791666663 20.830729166666664)"/><use xlink:href="#o" transform="matrix(1,0,0,1,636.4893617021277,310.2634357421031) translate(2.896744791666663 37.3640625)"/><path d="M460 350.38c0-2.76 2.24-5 5-5h89.57c2.77 0 5 2.24 5 5v46.78c0 2.76-2.23 5-5 5H465c-2.76 0-5-2.24-5-5z" stroke="#000" stroke-opacity="0" fill="#fff" fill-opacity="0"/><use xlink:href="#p" transform="matrix(1,0,0,1,465,350.38295110341846) translate(-0.6065104166666657 20.830729166666664)"/><use xlink:href="#q" transform="matrix(1,0,0,1,465,350.38295110341846) translate(15.396093749999995 37.3640625)"/><path d="M603.83 68.84c0-2.76 2.24-5 5-5h205.74c2.77 0 5 2.24 5 5v60.4c0 2.75-2.23 5-5 5H608.83c-2.76 0-5-2.25-5-5z" stroke="#000" stroke-opacity="0" fill="#fff" fill-opacity="0"/><use xlink:href="#r" transform="matrix(1,0,0,1,608.8297872340426,68.84249242752057) translate(0 36.09739583333334)"/><use xlink:href="#s" transform="matrix(1,0,0,1,608.8297872340426,68.84249242752057) translate(40.00651041666667 36.09739583333334)"/><use xlink:href="#t" transform="matrix(1,0,0,1,608.8297872340426,68.84249242752057) translate(88.01432291666669 36.09739583333334)"/><path d="M603.83 183.45c0-2.76 2.24-5 5-5h189.15c2.76 0 5 2.24 5 5v43.03c0 2.76-2.24 5-5 5H608.83c-2.76 0-5-2.24-5-5z" stroke="#000" stroke-opacity="0" fill="#fff" fill-opacity="0"/><use xlink:href="#u" transform="matrix(1,0,0,1,608.8297872340426,183.4529208135007) translate(0 27.597395833333334)"/><use xlink:href="#v" transform="matrix(1,0,0,1,608.8297872340426,183.4529208135007) translate(56.00911458333334 27.597395833333334)"/><use xlink:href="#w" transform="matrix(1,0,0,1,608.8297872340426,183.4529208135007) translate(88.01432291666669 27.597395833333334)"/><path d="M531.9 445c0-2.76 2.25-5 5-5h200.23c2.76 0 5 2.24 5 5v13.46c0 2.76-2.24 5-5 5H536.9c-2.75 0-5-2.24-5-5z" stroke="#000" stroke-opacity="0" fill="#fff" fill-opacity="0"/><use xlink:href="#g" transform="matrix(1,0,0,1,536.9148936170213,445) translate(0 13.8640625)"/><use xlink:href="#x" transform="matrix(1,0,0,1,536.9148936170213,445) translate(16.002604166666668 13.8640625)"/><use xlink:href="#y" transform="matrix(1,0,0,1,536.9148936170213,445) translate(88.01432291666667 13.8640625)"/><use xlink:href="#z" transform="matrix(1,0,0,1,536.9148936170213,445) translate(136.02213541666669 13.8640625)"/><path d="M378.52 216.34h47.5" stroke="#000" fill="none"/><path d="M378.53 216.84h-.5v-1h.5z"/><path d="M440.8 216.34l-14.28 4.64v-9.27z" stroke="#000"/><path d="M731.06 425c0-2.76 2.24-5 5-5h150c2.77 0 5 2.24 5 5v26.9c0 2.75-2.23 5-5 5h-150c-2.76 0-5-2.25-5-5z" stroke="#000" stroke-opacity="0" fill="#fff" fill-opacity="0"/><use xlink:href="#A" transform="matrix(1,0,0,1,736.0638297872337,425) translate(0 19.097395833333334)"/><use xlink:href="#B" transform="matrix(1,0,0,1,736.0638297872337,425) translate(72.01171875 19.097395833333334)"/><path d="M909.1 192.88h70.6" fill="none"/><path d="M909.1 192.88h4.7m4.7 0h9.42m4.7 0h9.42m4.7 0h9.43m4.7 0h9.42m4.7 0h4.7" stroke="#000" fill="none"/><path d="M909.1 193.38h-.5v-1h.5z"/><path d="M994.48 192.88l-14.27 4.64v-9.27z" fill="#fff"/><path d="M996.1 192.88l-16.4 5.33v-10.64zm-15.4 3.95l12.16-3.95-12.15-3.95z"/><path d="M996.6 156.82c0-2.76 2.23-5 5-5h78.5c2.77 0 5 2.24 5 5v72.12c0 2.76-2.23 5-5 5h-78.5c-2.77 0-5-2.24-5-5z" stroke="#000" fill-opacity="0"/><use xlink:href="#C" transform="matrix(1,0,0,1,1001.5957446808512,156.82388576373867) translate(17.89739583333333 28.764062499999998)"/><use xlink:href="#D" transform="matrix(1,0,0,1,1001.5957446808512,156.82388576373867) translate(7.494791666666661 42.09739583333334)"/><use xlink:href="#z" transform="matrix(1,0,0,1,1001.5957446808512,156.82388576373867) translate(15.496093749999996 55.430729166666666)"/><path d="M1129.36 156.82c0-2.76 2.24-5 5-5h78.5c2.77 0 5 2.24 5 5v72.12c0 2.76-2.23 5-5 5h-78.5c-2.76 0-5-2.24-5-5z" stroke="#000" fill-opacity="0"/><use xlink:href="#E" transform="matrix(1,0,0,1,1134.3617021276593,156.82388576373867) translate(5.895442708333327 35.430729166666666)"/><use xlink:href="#F" transform="matrix(1,0,0,1,1134.3617021276593,156.82388576373867) translate(7.494791666666661 48.7640625)"/><path d="M1040.85 234.94v34.5c0 2.76 2.24 5 5 5h122.77c2.76 0 5-2.24 5-5v-18.62" stroke="#000" fill="none"/><path d="M1041.35 234.95h-1v-.5h1zM1178.25 250.32h-9.27l4.64-14.26z"/><path d="M1178.94 250.82h-10.65l5.32-16.38zm-9.27-1h7.9l-3.95-12.14z"/><path d="M1173.62 150.82v-34.5c0-2.76-2.24-5-5-5h-118.64c-2.77 0-5 2.24-5 5v18.62" stroke="#000" fill="none"/><path d="M1174.12 151.32h-1v-.5h1zM1044.98 149.7l-4.64-14.26h9.27z"/><path d="M1044.98 151.32l-5.33-16.38h10.65zm-3.95-15.38l3.95 12.15 3.94-12.16z"/><path d="M664.68 462.48v32.98c-2.76 0-5 2.24-5 5 0 2.77 2.24 5 5 5v20.74" stroke="#000" fill="none"/><path d="M664.68 447.7l4.64 14.28h-9.27z" stroke="#000"/><path d="M668.57 526.55l3.6 1.5 3.12 2.38 2.38 3.12 1.5 3.6.5 3.9-.5 3.88-1.5 3.6-2.4 3.12-3.1 2.4-3.6 1.48-3.9.5-3.9-.5-3.6-1.5-3.1-2.4-2.4-3.1-1.5-3.6-.5-3.9.5-3.88 1.5-3.6 2.4-3.12 3.1-2.4 3.6-1.48 3.9-.5z" fill="#fff"/><path d="M668.7 526.06l3.72 1.54 3.22 2.48 2.48 3.22 1.54 3.72.53 4.02-.54 4.02-1.54 3.72-2.48 3.22-3.22 2.47-3.72 1.55-4 .52h-.05l-4-.52-3.7-1.55-3.23-2.47-2.48-3.22-1.54-3.72-.52-4.02.52-4.02 1.54-3.72 2.48-3.23 3.22-2.47 3.72-1.54 4.02-.53zm-7.78.98l-3.48 1.44-3 2.3-2.32 3.02-1.44 3.48-.5 3.76.5 3.76 1.44 3.47 2.3 3.02 3.02 2.3 3.48 1.44 3.76.5 3.76-.5 3.48-1.44 3-2.3 2.32-3.02 1.44-3.48.5-3.76-.5-3.76-1.44-3.48-2.3-3-3.02-2.32-3.48-1.44-3.76-.5z"/><path d="M460 115.77c0-2.77 2.24-5 5-5h78.5c2.77 0 5 2.23 5 5v78.68c0 2.76-2.23 5-5 5H465c-2.76 0-5-2.24-5-5z" stroke="#000" fill-opacity="0"/><g><use xlink:href="#G" transform="matrix(1,0,0,1,465,115.76590220683687) translate(13.896744791666663 45.09739583333334)"/><use xlink:href="#H" transform="matrix(1,0,0,1,465,115.76590220683687) translate(21.898046875 45.09739583333334)"/></g><path d="M603.83 561.54c0-2.76 2.24-5 5-5h111.7c2.76 0 5 2.24 5 5V575c0 2.76-2.24 5-5 5h-111.7c-2.76 0-5-2.24-5-5z" stroke="#000" stroke-opacity="0" fill="#fff" fill-opacity="0"/><g><use xlink:href="#I" transform="matrix(1,0,0,1,608.8297872340426,561.5382951103419) translate(6.39283854166667 13.8640625)"/></g><path d="M549.5 155.1h134.44c.06 0 .1.05.1.1 0 .06.05.1.1.1H802.7" stroke="#000" fill="none"/><path d="M549.52 155.6h-.5v-1h.5zM817.46 155.3l-14.27 4.64v-9.27z"/><path d="M819.07 155.3l-16.38 5.33v-10.65zm-15.38 3.96l12.14-3.95-12.15-3.94z"/><path d="M863.83 315.34v50.2c0 2.76-2.24 5-5 5H731.56" stroke="#000" fill="none"/><path d="M868.47 314.84h-9.28l4.63-14.26z"/><path d="M869.15 315.34H858.5l5.33-16.38zm-9.27-1h7.9l-3.95-12.14z"/><path d="M731.58 370.54h-.52" stroke="#000" fill="none"/><path d="M731.06 343.67c0-2.76 2.24-5 5-5H925.2c2.77 0 5 2.24 5 5v26.9c0 2.75-2.23 5-5 5H736.07c-2.76 0-5-2.25-5-5z" stroke="#000" stroke-opacity="0" fill="#fff" fill-opacity="0"/><g><use xlink:href="#J" transform="matrix(1,0,0,1,736.0638297872337,343.6670380787539) translate(0 19.097395833333334)"/><use xlink:href="#K" transform="matrix(1,0,0,1,736.0638297872337,343.6670380787539) translate(96.01562499999999 19.097395833333334)"/></g><path d="M863.83 315.34v125.2c0 2.77-2.24 5-5 5H731.56" stroke="#000" fill="none"/><path d="M868.47 314.84h-9.28l4.63-14.26z"/><path d="M869.15 315.34H858.5l5.33-16.38zm-9.27-1h7.9l-3.95-12.14z"/><path d="M731.58 445.55h-.52" stroke="#000" fill="none"/><defs><path d="M622-1349c296 4 497 117 497 404 0 282-193 424-485 431H353V0H162v-1349h460zm-15 684c195-3 320-88 320-277 0-184-129-255-328-254H353v531h254" id="L"/><path d="M839-1102c70 0 148 7 206 17v167c-112-18-268-36-363 15-129 69-208 203-208 395V0H294c-10-367 32-789-52-1082h171c21 75 41 161 48 250h5c67-152 152-270 373-270" id="M"/><path d="M617-1102c355 0 481 238 477 599H322c5 222 84 388 301 388 144 0 244-59 284-166l158 45C1002-72 854 20 623 20c-342 0-490-220-490-568 0-346 151-554 484-554zm291 461c-18-192-90-328-289-328-194 0-287 128-295 328h584" id="N"/><path d="M873-819c-18-114-119-146-250-146-163 0-245 50-245 151 0 151 170 148 294 185 182 54 388 94 388 320 0 240-189 325-439 329-245 4-410-69-454-268l159-31c24 133 136 168 295 165 144-2 270-31 270-171 0-164-195-160-331-202-167-52-350-87-350-299 0-218 173-315 413-313 220 2 373 77 412 260" id="O"/><path d="M528 20c-247 0-343-132-343-381v-721h180v686c-4 177 45 284 224 277 194-8 279-136 279-336v-627h181c3 360-6 732 6 1082H885c-4-54-7-126-8-185h-3C809-64 714 20 528 20" id="P"/><g id="b"><use transform="matrix(0.006510416666666667,0,0,0.006510416666666667,0,0)" xlink:href="#L"/><use transform="matrix(0.006510416666666667,0,0,0.006510416666666667,8.001302083333334,0)" xlink:href="#M"/><use transform="matrix(0.006510416666666667,0,0,0.006510416666666667,16.002604166666668,0)" xlink:href="#N"/><use transform="matrix(0.006510416666666667,0,0,0.006510416666666667,24.00390625,0)" xlink:href="#O"/><use transform="matrix(0.006510416666666667,0,0,0.006510416666666667,32.005208333333336,0)" xlink:href="#O"/><use transform="matrix(0.006510416666666667,0,0,0.006510416666666667,40.00651041666667,0)" xlink:href="#P"/><use transform="matrix(0.006510416666666667,0,0,0.006510416666666667,48.00781250000001,0)" xlink:href="#M"/><use transform="matrix(0.006510416666666667,0,0,0.006510416666666667,56.00911458333335,0)" xlink:href="#N"/></g><path d="M682 16c-209 0-323-80-324-285v-671H190v-142h170l58-282h120v282h432v142H538v652c2 114 60 155 182 155 106 0 209-16 297-34v137C921-4 806 16 682 16" id="Q"/><g id="c"><use transform="matrix(0.006510416666666667,0,0,0.006510416666666667,0,0)" xlink:href="#O"/><use transform="matrix(0.006510416666666667,0,0,0.006510416666666667,8.001302083333334,0)" xlink:href="#N"/><use transform="matrix(0.006510416666666667,0,0,0.006510416666666667,16.002604166666668,0)" xlink:href="#Q"/></g><path d="M698-1104c312 3 392 244 392 558 0 315-82 566-392 566-169 0-277-65-331-184h-5c8 188 2 394 4 589H185V-858c0-76-1-156-6-224h175c6 52 9 120 10 178h4c58-122 150-202 330-200zm-49 991c225 0 255-203 255-433 0-225-32-419-253-419-236 0-285 192-285 441 0 237 53 411 283 411" id="R"/><path d="M615-1102c343 0 484 203 482 560-1 347-147 562-488 562-336 0-475-219-479-562-4-349 156-560 485-560zm-8 989c240 0 301-180 301-429 0-245-55-427-290-427-236 0-299 181-299 427 0 243 61 429 288 429" id="S"/><path d="M745-142h380V0H143v-142h422v-798H246v-142h499v940zM545-1292v-192h200v192H545" id="T"/><path d="M706-1102c241 0 344 136 343 381V0H868v-695c1-168-57-273-220-268-190 6-283 138-283 336V0H185c-3-360 6-732-6-1082h170c4 54 7 126 8 185h3c63-121 164-204 346-205" id="U"/><g id="d"><use transform="matrix(0.006510416666666667,0,0,0.006510416666666667,0,0)" xlink:href="#R"/><use transform="matrix(0.006510416666666667,0,0,0.006510416666666667,8.001302083333334,0)" xlink:href="#S"/><use transform="matrix(0.006510416666666667,0,0,0.006510416666666667,16.002604166666668,0)" xlink:href="#T"/><use transform="matrix(0.006510416666666667,0,0,0.006510416666666667,24.00390625,0)" xlink:href="#U"/><use transform="matrix(0.006510416666666667,0,0,0.006510416666666667,32.005208333333336,0)" xlink:href="#Q"/></g><path d="M385-1193v494h676v158H385V0H194v-1349h891v156H385" id="V"/><path d="M865-914c-3-187-2-380-2-570h180v1261c0 76 1 155 6 223H877c-8-49-9-116-10-174h-5C801-44 708 26 530 26c-135 0-234-46-297-139s-95-232-95-419c0-377 131-566 392-566 176 0 271 63 335 184zm-286-51c-222 0-255 197-255 427 0 229 31 425 253 425 237 0 286-195 286-441 0-238-52-411-284-411" id="W"/><path d="M365-904c58-129 161-200 334-200 130 0 228 46 293 138s98 233 98 420c0 189-34 331-102 425S824 20 698 20c-170 0-275-64-336-184 0 55-3 116-9 164H179c5-68 6-147 6-223v-1261h180c-2 193 4 394-4 580h4zm283 791c221 0 256-197 256-427 0-229-34-425-254-425-236 0-285 195-285 441 0 237 53 411 283 411" id="X"/><path d="M1000-272c3 95 12 159 101 161 21 0 41-3 59-7V-6c-44 10-86 16-139 16-141 2-191-84-197-217h-6C748-76 648 20 446 20c-207 0-318-120-318-322 0-266 194-348 454-354l236-4c12-191-40-305-222-305-140 0-220 47-232 172l-188-17c33-204 181-292 423-292 255 0 401 118 401 364v466zm-683-27c0 109 63 184 175 182 166-3 259-96 306-217 24-65 20-120 20-200-232 7-501-28-501 235" id="Y"/><path d="M631 20c-350 0-501-215-501-562 0-355 162-560 502-560 250 0 399 118 446 323l-192 14c-23-124-109-196-262-196-242 0-305 171-305 415 1 245 61 427 304 427 151 0 248-77 267-215l190 12C1039-107 883 20 631 20" id="Z"/><path d="M914 0L548-499l-132 98V0H236v-1484h180v927l475-525h211L663-617 1125 0H914" id="aa"/><g id="f"><use transform="matrix(0.006510416666666667,0,0,0.006510416666666667,0,0)" xlink:href="#V"/><use transform="matrix(0.006510416666666667,0,0,0.006510416666666667,8.001302083333334,0)" xlink:href="#N"/><use transform="matrix(0.006510416666666667,0,0,0.006510416666666667,16.002604166666668,0)" xlink:href="#N"/><use transform="matrix(0.006510416666666667,0,0,0.006510416666666667,24.00390625,0)" xlink:href="#W"/><use transform="matrix(0.006510416666666667,0,0,0.006510416666666667,32.005208333333336,0)" xlink:href="#X"/><use transform="matrix(0.006510416666666667,0,0,0.006510416666666667,40.00651041666667,0)" xlink:href="#Y"/><use transform="matrix(0.006510416666666667,0,0,0.006510416666666667,48.00781250000001,0)" xlink:href="#Z"/><use transform="matrix(0.006510416666666667,0,0,0.006510416666666667,56.00911458333335,0)" xlink:href="#aa"/></g><path d="M237 0v-1349h191v1193h672V0H237" id="ab"/><g id="h"><use transform="matrix(0.006510416666666667,0,0,0.006510416666666667,0,0)" xlink:href="#ab"/><use transform="matrix(0.006510416666666667,0,0,0.006510416666666667,8.001302083333334,0)" xlink:href="#S"/><use transform="matrix(0.006510416666666667,0,0,0.006510416666666667,16.002604166666668,0)" xlink:href="#S"/><use transform="matrix(0.006510416666666667,0,0,0.006510416666666667,24.00390625,0)" xlink:href="#R"/></g><path d="M102-681c0-398 126-689 513-689 165 0 291 58 379 174s132 287 132 515c-1 318-88 554-298 657-123 61-317 58-438-3-206-104-288-341-288-654zm749 406c94-160 97-656-5-807-57-85-130-132-231-132-104 0-178 47-234 132-101 153-99 655 1 809 57 89 130 138 232 138 109 0 184-49 237-140" id="ac"/><g id="i"><use transform="matrix(0.006510416666666667,0,0,0.006510416666666667,0,0)" xlink:href="#ac"/><use transform="matrix(0.006510416666666667,0,0,0.006510416666666667,8.001302083333334,0)" xlink:href="#P"/><use transform="matrix(0.006510416666666667,0,0,0.006510416666666667,16.002604166666668,0)" xlink:href="#Q"/><use transform="matrix(0.006510416666666667,0,0,0.006510416666666667,24.00390625,0)" xlink:href="#R"/><use transform="matrix(0.006510416666666667,0,0,0.006510416666666667,32.005208333333336,0)" xlink:href="#P"/><use transform="matrix(0.006510416666666667,0,0,0.006510416666666667,40.00651041666667,0)" xlink:href="#Q"/></g><path d="M677 91c1 136 41 195 171 195h213v139H796c-186-8-294-116-294-303v-351c-3-164-120-222-275-232v-137c155-10 275-69 275-231v-352c6-189 106-303 294-303h265v139H848c-126-3-171 67-171 195v346c-5 158-108 234-231 274 128 36 231 115 231 274V91" id="ad"/><path d="M614-1226c-167 1-283 53-283 213 0 183 186 193 334 234 230 63 463 120 463 409 0 286-219 387-518 390C309 23 131-98 79-338l185-37c34 165 149 248 351 246 184-2 324-58 324-238 0-203-207-221-372-266-210-57-422-111-422-377 0-267 201-356 470-360 279-5 430 101 480 324l-188 33c-28-141-121-215-293-213" id="ae"/><path d="M259 363l169-662h265L382 363H259" id="af"/><g id="k"><use transform="matrix(0.006510416666666667,0,0,0.006510416666666667,0,0)" xlink:href="#ad"/><use transform="matrix(0.006510416666666667,0,0,0.006510416666666667,8.001302083333334,0)" xlink:href="#ae"/><use transform="matrix(0.006510416666666667,0,0,0.006510416666666667,16.002604166666668,0)" xlink:href="#Z"/><use transform="matrix(0.006510416666666667,0,0,0.006510416666666667,24.00390625,0)" xlink:href="#S"/><use transform="matrix(0.006510416666666667,0,0,0.006510416666666667,32.005208333333336,0)" xlink:href="#R"/><use transform="matrix(0.006510416666666667,0,0,0.006510416666666667,40.00651041666667,0)" xlink:href="#N"/><use transform="matrix(0.006510416666666667,0,0,0.006510416666666667,48.00781250000001,0)" xlink:href="#af"/></g><path d="M473-1349c438-1 655 221 652 661C1122-268 945-8 532 0H162v-1349h311zm42 1193c308-4 416-205 418-532 2-330-131-509-459-505H353v1037h162" id="ag"/><path d="M726 122c-7 187-108 303-294 303H167V286h213c129-2 172-59 172-195v-347c5-160 106-236 230-276-125-36-230-116-230-272v-346c2-128-45-195-172-195H167v-139h265c187 7 294 114 294 303v352c4 162 120 221 275 231v137c-155 10-275 68-275 232v351" id="ah"/><g id="l"><use transform="matrix(0.006510416666666667,0,0,0.006510416666666667,0,0)" xlink:href="#ag"/><use transform="matrix(0.006510416666666667,0,0,0.006510416666666667,8.001302083333334,0)" xlink:href="#T"/><use transform="matrix(0.006510416666666667,0,0,0.006510416666666667,16.002604166666668,0)" xlink:href="#O"/><use transform="matrix(0.006510416666666667,0,0,0.006510416666666667,24.00390625,0)" xlink:href="#Z"/><use transform="matrix(0.006510416666666667,0,0,0.006510416666666667,32.005208333333336,0)" xlink:href="#M"/><use transform="matrix(0.006510416666666667,0,0,0.006510416666666667,40.00651041666667,0)" xlink:href="#N"/><use transform="matrix(0.006510416666666667,0,0,0.006510416666666667,48.00781250000001,0)" xlink:href="#Q"/><use transform="matrix(0.006510416666666667,0,0,0.006510416666666667,56.00911458333335,0)" xlink:href="#N"/><use transform="matrix(0.006510416666666667,0,0,0.006510416666666667,64.01041666666667,0)" xlink:href="#ah"/></g><path d="M904-1102c199 0 220 177 220 381V0H956v-686c-3-114 0-215-60-264-70-33-125-4-158 71-26 56-39 140-39 252V0H531v-686c-3-114-1-215-61-264-78-41-136 24-157 84-24 69-39 159-39 259V0H105c-3-360 6-732-6-1082h149c6 50 3 123 8 175 36-100 83-195 216-195 135 0 166 79 196 196 42-105 93-196 236-196" id="ai"/><path d="M736-142h380V0H134v-142h422v-1200H267v-142h469v1342" id="aj"/><path d="M114 20l821-1504h178L296 20H114" id="ak"/><path d="M1034 0L896-382H333L196 0H0l510-1349h217L1228 0h-194zM847-531c-77-225-157-447-231-674-69 231-154 451-232 674h463" id="al"/><g id="m"><use transform="matrix(0.006510416666666667,0,0,0.006510416666666667,0,0)" xlink:href="#ae"/><use transform="matrix(0.006510416666666667,0,0,0.006510416666666667,8.001302083333334,0)" xlink:href="#T"/><use transform="matrix(0.006510416666666667,0,0,0.006510416666666667,16.002604166666668,0)" xlink:href="#ai"/><use transform="matrix(0.006510416666666667,0,0,0.006510416666666667,24.00390625,0)" xlink:href="#P"/><use transform="matrix(0.006510416666666667,0,0,0.006510416666666667,32.005208333333336,0)" xlink:href="#aj"/><use transform="matrix(0.006510416666666667,0,0,0.006510416666666667,40.00651041666667,0)" xlink:href="#Y"/><use transform="matrix(0.006510416666666667,0,0,0.006510416666666667,48.00781250000001,0)" xlink:href="#Q"/><use transform="matrix(0.006510416666666667,0,0,0.006510416666666667,56.00911458333335,0)" xlink:href="#N"/><use transform="matrix(0.006510416666666667,0,0,0.006510416666666667,64.01041666666667,0)" xlink:href="#W"/><use transform="matrix(0.006510416666666667,0,0,0.006510416666666667,72.01171875,0)" xlink:href="#ak"/><use transform="matrix(0.006510416666666667,0,0,0.006510416666666667,80.01302083333333,0)" xlink:href="#al"/><use transform="matrix(0.006510416666666667,0,0,0.006510416666666667,88.01432291666666,0)" xlink:href="#Z"/><use transform="matrix(0.006510416666666667,0,0,0.006510416666666667,96.01562499999999,0)" xlink:href="#Q"/><use transform="matrix(0.006510416666666667,0,0,0.006510416666666667,104.01692708333331,0)" xlink:href="#P"/><use transform="matrix(0.006510416666666667,0,0,0.006510416666666667,112.01822916666664,0)" xlink:href="#Y"/><use transform="matrix(0.006510416666666667,0,0,0.006510416666666667,120.01953124999999,0)" xlink:href="#aj"/></g><path d="M1121-976c0 225-142 341-344 379L1177 0H957L591-575H353V0H162v-1349h482c281 3 477 100 477 373zM633-726c181-1 296-73 296-247 0-149-101-223-304-223H353v470h280" id="am"/><path d="M1048-32c-2 300-135 456-433 456-222-1-358-88-400-267l184-25c22 99 100 157 222 156 184-2 248-125 248-315 0-64 3-133-2-194C807-100 706-13 524-12c-306 0-381-228-381-537 0-318 85-550 400-550 164 0 271 83 325 202h3c1-60 3-134 12-185h171c-13 339-4 702-6 1050zM585-145c210-8 284-178 284-406 0-192-52-331-177-392-33-16-69-22-104-22-223 2-259 184-259 414 0 229 31 415 256 406" id="an"/><g id="n"><use transform="matrix(0.006510416666666667,0,0,0.006510416666666667,0,0)" xlink:href="#am"/><use transform="matrix(0.006510416666666667,0,0,0.006510416666666667,8.001302083333334,0)" xlink:href="#Y"/><use transform="matrix(0.006510416666666667,0,0,0.006510416666666667,16.002604166666668,0)" xlink:href="#U"/><use transform="matrix(0.006510416666666667,0,0,0.006510416666666667,24.00390625,0)" xlink:href="#an"/><use transform="matrix(0.006510416666666667,0,0,0.006510416666666667,32.005208333333336,0)" xlink:href="#N"/></g><g id="o"><use transform="matrix(0.006510416666666667,0,0,0.006510416666666667,0,0)" xlink:href="#ab"/><use transform="matrix(0.006510416666666667,0,0,0.006510416666666667,8.001302083333334,0)" xlink:href="#T"/><use transform="matrix(0.006510416666666667,0,0,0.006510416666666667,16.002604166666668,0)" xlink:href="#ai"/><use transform="matrix(0.006510416666666667,0,0,0.006510416666666667,24.00390625,0)" xlink:href="#T"/><use transform="matrix(0.006510416666666667,0,0,0.006510416666666667,32.005208333333336,0)" xlink:href="#Q"/></g><path d="M650-1214c-281 0-336 244-336 533 0 295 60 546 347 546 188 0 263-142 322-282l159 65C1058-155 935 20 659 20c-401 0-546-295-546-701 0-407 135-689 536-689 264 0 391 146 466 335l-168 65c-47-129-127-244-297-244" id="ao"/><g id="p"><use transform="matrix(0.006510416666666667,0,0,0.006510416666666667,0,0)" xlink:href="#ao"/><use transform="matrix(0.006510416666666667,0,0,0.006510416666666667,8.001302083333334,0)" xlink:href="#S"/><use transform="matrix(0.006510416666666667,0,0,0.006510416666666667,16.002604166666668,0)" xlink:href="#U"/><use transform="matrix(0.006510416666666667,0,0,0.006510416666666667,24.00390625,0)" xlink:href="#Q"/><use transform="matrix(0.006510416666666667,0,0,0.006510416666666667,32.005208333333336,0)" xlink:href="#M"/><use transform="matrix(0.006510416666666667,0,0,0.006510416666666667,40.00651041666667,0)" xlink:href="#S"/><use transform="matrix(0.006510416666666667,0,0,0.006510416666666667,48.00781250000001,0)" xlink:href="#aj"/><use transform="matrix(0.006510416666666667,0,0,0.006510416666666667,56.00911458333335,0)" xlink:href="#aj"/><use transform="matrix(0.006510416666666667,0,0,0.006510416666666667,64.01041666666667,0)" xlink:href="#N"/><use transform="matrix(0.006510416666666667,0,0,0.006510416666666667,72.01171875,0)" xlink:href="#M"/></g><path d="M285-1169c8 382 2 780 4 1169H129v-1349h237c86 239 188 461 253 720 69-258 169-481 255-720h225V0H937c2-390-5-788 6-1169-75 255-170 488-259 729H547c-90-240-185-475-262-729" id="ap"/><g id="q"><use transform="matrix(0.006510416666666667,0,0,0.006510416666666667,0,0)" xlink:href="#ap"/><use transform="matrix(0.006510416666666667,0,0,0.006510416666666667,8.001302083333334,0)" xlink:href="#S"/><use transform="matrix(0.006510416666666667,0,0,0.006510416666666667,16.002604166666668,0)" xlink:href="#W"/><use transform="matrix(0.006510416666666667,0,0,0.006510416666666667,24.00390625,0)" xlink:href="#P"/><use transform="matrix(0.006510416666666667,0,0,0.006510416666666667,32.005208333333336,0)" xlink:href="#aj"/><use transform="matrix(0.006510416666666667,0,0,0.006510416666666667,40.00651041666667,0)" xlink:href="#N"/></g><path d="M162 0v-1349h919v156H353v422h668v154H353v461h769V0H162" id="aq"/><g id="r"><use transform="matrix(0.006510416666666667,0,0,0.006510416666666667,0,0)" xlink:href="#ab"/><use transform="matrix(0.006510416666666667,0,0,0.006510416666666667,8.001302083333334,0)" xlink:href="#aq"/><use transform="matrix(0.006510416666666667,0,0,0.006510416666666667,16.002604166666668,0)" xlink:href="#ag"/><use transform="matrix(0.006510416666666667,0,0,0.006510416666666667,24.00390625,0)" xlink:href="#O"/></g><g id="s"><use transform="matrix(0.006510416666666667,0,0,0.006510416666666667,0,0)" xlink:href="#ad"/><use transform="matrix(0.006510416666666667,0,0,0.006510416666666667,8.001302083333334,0)" xlink:href="#ac"/><use transform="matrix(0.006510416666666667,0,0,0.006510416666666667,16.002604166666668,0)" xlink:href="#V"/><use transform="matrix(0.006510416666666667,0,0,0.006510416666666667,24.00390625,0)" xlink:href="#V"/><use transform="matrix(0.006510416666666667,0,0,0.006510416666666667,32.005208333333336,0)" xlink:href="#af"/></g><path d="M655-135c108 0 195-33 260-74v-336H622v-160h479v572C981-54 839 20 639 20c-388 0-526-306-526-701 0-406 129-689 529-689 261 0 392 137 461 331l-171 56c-47-131-122-231-288-231-281 0-330 245-330 533 0 179 28 314 84 407s142 139 257 139" id="ar"/><path d="M912-211c-10-84-18-177-18-274v-864h172V0H836L316-1130c7 79 16 167 16 254V0H162v-1349h222" id="as"/><g id="t"><use transform="matrix(0.006510416666666667,0,0,0.006510416666666667,0,0)" xlink:href="#am"/><use transform="matrix(0.006510416666666667,0,0,0.006510416666666667,8.001302083333334,0)" xlink:href="#aq"/><use transform="matrix(0.006510416666666667,0,0,0.006510416666666667,16.002604166666668,0)" xlink:href="#ag"/><use transform="matrix(0.006510416666666667,0,0,0.006510416666666667,24.00390625,0)" xlink:href="#af"/><use transform="matrix(0.006510416666666667,0,0,0.006510416666666667,32.005208333333336,0)" xlink:href="#ar"/><use transform="matrix(0.006510416666666667,0,0,0.006510416666666667,40.00651041666667,0)" xlink:href="#am"/><use transform="matrix(0.006510416666666667,0,0,0.006510416666666667,48.00781250000001,0)" xlink:href="#aq"/><use transform="matrix(0.006510416666666667,0,0,0.006510416666666667,56.00911458333335,0)" xlink:href="#aq"/><use transform="matrix(0.006510416666666667,0,0,0.006510416666666667,64.01041666666667,0)" xlink:href="#as"/><use transform="matrix(0.006510416666666667,0,0,0.006510416666666667,72.01171875,0)" xlink:href="#ah"/></g><path d="M713 0H515L10-1349h201C345-955 498-579 615-168c116-411 269-787 402-1181h201" id="at"/><g id="u"><use transform="matrix(0.006510416666666667,0,0,0.006510416666666667,0,0)" xlink:href="#at"/><use transform="matrix(0.006510416666666667,0,0,0.006510416666666667,8.001302083333334,0)" xlink:href="#al"/><use transform="matrix(0.006510416666666667,0,0,0.006510416666666667,16.002604166666668,0)" xlink:href="#ab"/><use transform="matrix(0.006510416666666667,0,0,0.006510416666666667,24.00390625,0)" xlink:href="#at"/><use transform="matrix(0.006510416666666667,0,0,0.006510416666666667,32.005208333333336,0)" xlink:href="#aq"/><use transform="matrix(0.006510416666666667,0,0,0.006510416666666667,40.00651041666667,0)" xlink:href="#O"/></g><g id="v"><use transform="matrix(0.006510416666666667,0,0,0.006510416666666667,0,0)" xlink:href="#ao"/><use transform="matrix(0.006510416666666667,0,0,0.006510416666666667,8.001302083333334,0)" xlink:href="#ap"/><use transform="matrix(0.006510416666666667,0,0,0.006510416666666667,16.002604166666668,0)" xlink:href="#ag"/></g><g id="w"><use transform="matrix(0.006510416666666667,0,0,0.006510416666666667,0,0)" xlink:href="#ad"/><use transform="matrix(0.006510416666666667,0,0,0.006510416666666667,8.001302083333334,0)" xlink:href="#ac"/><use transform="matrix(0.006510416666666667,0,0,0.006510416666666667,16.002604166666668,0)" xlink:href="#V"/><use transform="matrix(0.006510416666666667,0,0,0.006510416666666667,24.00390625,0)" xlink:href="#V"/><use transform="matrix(0.006510416666666667,0,0,0.006510416666666667,32.005208333333336,0)" xlink:href="#af"/><use transform="matrix(0.006510416666666667,0,0,0.006510416666666667,40.00651041666667,0)" xlink:href="#ac"/><use transform="matrix(0.006510416666666667,0,0,0.006510416666666667,48.00781250000001,0)" xlink:href="#as"/><use transform="matrix(0.006510416666666667,0,0,0.006510416666666667,56.00911458333335,0)" xlink:href="#ah"/></g><path d="M932 0L611-444 288 0H94l415-556-397-526h199l300 421 298-421h201L713-558 1133 0H932" id="au"/><path d="M147 0v-137l681-806H187v-139h844v137L349-139h719V0H147" id="av"/><g id="x"><use transform="matrix(0.006510416666666667,0,0,0.006510416666666667,0,0)" xlink:href="#ac"/><use transform="matrix(0.006510416666666667,0,0,0.006510416666666667,8.001302083333334,0)" xlink:href="#au"/><use transform="matrix(0.006510416666666667,0,0,0.006510416666666667,16.002604166666668,0)" xlink:href="#T"/><use transform="matrix(0.006510416666666667,0,0,0.006510416666666667,24.00390625,0)" xlink:href="#W"/><use transform="matrix(0.006510416666666667,0,0,0.006510416666666667,32.005208333333336,0)" xlink:href="#T"/><use transform="matrix(0.006510416666666667,0,0,0.006510416666666667,40.00651041666667,0)" xlink:href="#av"/><use transform="matrix(0.006510416666666667,0,0,0.006510416666666667,48.00781250000001,0)" xlink:href="#N"/><use transform="matrix(0.006510416666666667,0,0,0.006510416666666667,56.00911458333335,0)" xlink:href="#M"/></g><path d="M709-1193V0H519v-1193H76v-156h1076v156H709" id="aw"/><g id="y"><use transform="matrix(0.006510416666666667,0,0,0.006510416666666667,0,0)" xlink:href="#aw"/><use transform="matrix(0.006510416666666667,0,0,0.006510416666666667,8.001302083333334,0)" xlink:href="#Y"/><use transform="matrix(0.006510416666666667,0,0,0.006510416666666667,16.002604166666668,0)" xlink:href="#U"/><use transform="matrix(0.006510416666666667,0,0,0.006510416666666667,24.00390625,0)" xlink:href="#aa"/></g><g id="z"><use transform="matrix(0.006510416666666667,0,0,0.006510416666666667,0,0)" xlink:href="#ap"/><use transform="matrix(0.006510416666666667,0,0,0.006510416666666667,8.001302083333334,0)" xlink:href="#S"/><use transform="matrix(0.006510416666666667,0,0,0.006510416666666667,16.002604166666668,0)" xlink:href="#W"/><use transform="matrix(0.006510416666666667,0,0,0.006510416666666667,24.00390625,0)" xlink:href="#P"/><use transform="matrix(0.006510416666666667,0,0,0.006510416666666667,32.005208333333336,0)" xlink:href="#aj"/><use transform="matrix(0.006510416666666667,0,0,0.006510416666666667,40.00651041666667,0)" xlink:href="#N"/></g><path d="M604-135c236 0 291-142 291-376v-838h190v859c5 340-142 510-480 510-326 0-463-164-463-492v-877h191v851c-3 222 46 363 271 363" id="ax"/><g id="A"><use transform="matrix(0.006510416666666667,0,0,0.006510416666666667,0,0)" xlink:href="#L"/><use transform="matrix(0.006510416666666667,0,0,0.006510416666666667,8.001302083333334,0)" xlink:href="#am"/><use transform="matrix(0.006510416666666667,0,0,0.006510416666666667,16.002604166666668,0)" xlink:href="#aq"/><use transform="matrix(0.006510416666666667,0,0,0.006510416666666667,24.00390625,0)" xlink:href="#ae"/><use transform="matrix(0.006510416666666667,0,0,0.006510416666666667,32.005208333333336,0)" xlink:href="#ae"/><use transform="matrix(0.006510416666666667,0,0,0.006510416666666667,40.00651041666667,0)" xlink:href="#ax"/><use transform="matrix(0.006510416666666667,0,0,0.006510416666666667,48.00781250000001,0)" xlink:href="#am"/><use transform="matrix(0.006510416666666667,0,0,0.006510416666666667,56.00911458333335,0)" xlink:href="#aq"/></g><path d="M891-1484c-201 251-362 514-362 954 0 441 161 704 362 955H701C500 176 342-90 342-532c0-440 159-704 359-952h190" id="ay"/><path d="M528-1484c201 248 357 511 357 952 0 442-156 709-357 957H336C537 174 700-89 700-530c0-440-163-703-364-954h192" id="az"/><g id="B"><use transform="matrix(0.006510416666666667,0,0,0.006510416666666667,0,0)" xlink:href="#ay"/><use transform="matrix(0.006510416666666667,0,0,0.006510416666666667,8.001302083333334,0)" xlink:href="#R"/><use transform="matrix(0.006510416666666667,0,0,0.006510416666666667,16.002604166666668,0)" xlink:href="#O"/><use transform="matrix(0.006510416666666667,0,0,0.006510416666666667,24.00390625,0)" xlink:href="#T"/><use transform="matrix(0.006510416666666667,0,0,0.006510416666666667,32.005208333333336,0)" xlink:href="#az"/></g><g id="C"><use transform="matrix(0.006510416666666667,0,0,0.006510416666666667,0,0)" xlink:href="#ag"/><use transform="matrix(0.006510416666666667,0,0,0.006510416666666667,8.001302083333334,0)" xlink:href="#Y"/><use transform="matrix(0.006510416666666667,0,0,0.006510416666666667,16.002604166666668,0)" xlink:href="#Q"/><use transform="matrix(0.006510416666666667,0,0,0.006510416666666667,24.00390625,0)" xlink:href="#Y"/></g><path d="M168 279c222 39 310-114 368-290L66-1082h192c120 299 249 590 362 896 115-301 235-597 351-896h190L705 0c-65 164-130 320-275 396-67 36-177 35-262 18V279" id="aA"/><g id="D"><use transform="matrix(0.006510416666666667,0,0,0.006510416666666667,0,0)" xlink:href="#al"/><use transform="matrix(0.006510416666666667,0,0,0.006510416666666667,8.001302083333334,0)" xlink:href="#U"/><use transform="matrix(0.006510416666666667,0,0,0.006510416666666667,16.002604166666668,0)" xlink:href="#Y"/><use transform="matrix(0.006510416666666667,0,0,0.006510416666666667,24.00390625,0)" xlink:href="#aj"/><use transform="matrix(0.006510416666666667,0,0,0.006510416666666667,32.005208333333336,0)" xlink:href="#aA"/><use transform="matrix(0.006510416666666667,0,0,0.006510416666666667,40.00651041666667,0)" xlink:href="#O"/><use transform="matrix(0.006510416666666667,0,0,0.006510416666666667,48.00781250000001,0)" xlink:href="#T"/><use transform="matrix(0.006510416666666667,0,0,0.006510416666666667,56.00911458333335,0)" xlink:href="#O"/></g><path d="M648-963c-190 6-283 138-283 336V0H185v-1484h181c-2 197 6 404-9 587h3c62-120 159-205 339-205 242 0 351 135 350 381V0H868v-695c1-168-57-273-220-268" id="aB"/><g id="E"><use transform="matrix(0.006510416666666667,0,0,0.006510416666666667,0,0)" xlink:href="#ap"/><use transform="matrix(0.006510416666666667,0,0,0.006510416666666667,8.001302083333334,0)" xlink:href="#Y"/><use transform="matrix(0.006510416666666667,0,0,0.006510416666666667,16.002604166666668,0)" xlink:href="#Z"/><use transform="matrix(0.006510416666666667,0,0,0.006510416666666667,24.00390625,0)" xlink:href="#aB"/><use transform="matrix(0.006510416666666667,0,0,0.006510416666666667,32.005208333333336,0)" xlink:href="#T"/><use transform="matrix(0.006510416666666667,0,0,0.006510416666666667,40.00651041666667,0)" xlink:href="#U"/><use transform="matrix(0.006510416666666667,0,0,0.006510416666666667,48.00781250000001,0)" xlink:href="#N"/></g><g id="F"><use transform="matrix(0.006510416666666667,0,0,0.006510416666666667,0,0)" xlink:href="#ab"/><use transform="matrix(0.006510416666666667,0,0,0.006510416666666667,8.001302083333334,0)" xlink:href="#N"/><use transform="matrix(0.006510416666666667,0,0,0.006510416666666667,16.002604166666668,0)" xlink:href="#Y"/><use transform="matrix(0.006510416666666667,0,0,0.006510416666666667,24.00390625,0)" xlink:href="#M"/><use transform="matrix(0.006510416666666667,0,0,0.006510416666666667,32.005208333333336,0)" xlink:href="#U"/><use transform="matrix(0.006510416666666667,0,0,0.006510416666666667,40.00651041666667,0)" xlink:href="#T"/><use transform="matrix(0.006510416666666667,0,0,0.006510416666666667,48.00781250000001,0)" xlink:href="#U"/><use transform="matrix(0.006510416666666667,0,0,0.006510416666666667,56.00911458333335,0)" xlink:href="#an"/></g><g id="H"><use transform="matrix(0.006510416666666667,0,0,0.006510416666666667,0,0)" xlink:href="#aw"/><use transform="matrix(0.006510416666666667,0,0,0.006510416666666667,8.001302083333334,0)" xlink:href="#T"/><use transform="matrix(0.006510416666666667,0,0,0.006510416666666667,16.002604166666668,0)" xlink:href="#ai"/><use transform="matrix(0.006510416666666667,0,0,0.006510416666666667,24.00390625,0)" xlink:href="#N"/></g><g id="I"><use transform="matrix(0.006510416666666667,0,0,0.006510416666666667,0,0)" xlink:href="#ag"/><use transform="matrix(0.006510416666666667,0,0,0.006510416666666667,8.001302083333334,0)" xlink:href="#T"/><use transform="matrix(0.006510416666666667,0,0,0.006510416666666667,16.002604166666668,0)" xlink:href="#O"/><use transform="matrix(0.006510416666666667,0,0,0.006510416666666667,24.00390625,0)" xlink:href="#Q"/><use transform="matrix(0.006510416666666667,0,0,0.006510416666666667,32.005208333333336,0)" xlink:href="#P"/><use transform="matrix(0.006510416666666667,0,0,0.006510416666666667,40.00651041666667,0)" xlink:href="#M"/><use transform="matrix(0.006510416666666667,0,0,0.006510416666666667,48.00781250000001,0)" xlink:href="#X"/><use transform="matrix(0.006510416666666667,0,0,0.006510416666666667,56.00911458333335,0)" xlink:href="#Y"/><use transform="matrix(0.006510416666666667,0,0,0.006510416666666667,64.01041666666667,0)" xlink:href="#U"/><use transform="matrix(0.006510416666666667,0,0,0.006510416666666667,72.01171875,0)" xlink:href="#Z"/><use transform="matrix(0.006510416666666667,0,0,0.006510416666666667,80.01302083333333,0)" xlink:href="#N"/></g><g id="J"><use transform="matrix(0.006510416666666667,0,0,0.006510416666666667,0,0)" xlink:href="#aw"/><use transform="matrix(0.006510416666666667,0,0,0.006510416666666667,8.001302083333334,0)" xlink:href="#N"/><use transform="matrix(0.006510416666666667,0,0,0.006510416666666667,16.002604166666668,0)" xlink:href="#ai"/><use transform="matrix(0.006510416666666667,0,0,0.006510416666666667,24.00390625,0)" xlink:href="#R"/><use transform="matrix(0.006510416666666667,0,0,0.006510416666666667,32.005208333333336,0)" xlink:href="#N"/><use transform="matrix(0.006510416666666667,0,0,0.006510416666666667,40.00651041666667,0)" xlink:href="#M"/><use transform="matrix(0.006510416666666667,0,0,0.006510416666666667,48.00781250000001,0)" xlink:href="#Y"/><use transform="matrix(0.006510416666666667,0,0,0.006510416666666667,56.00911458333335,0)" xlink:href="#Q"/><use transform="matrix(0.006510416666666667,0,0,0.006510416666666667,64.01041666666667,0)" xlink:href="#P"/><use transform="matrix(0.006510416666666667,0,0,0.006510416666666667,72.01171875,0)" xlink:href="#M"/><use transform="matrix(0.006510416666666667,0,0,0.006510416666666667,80.01302083333333,0)" xlink:href="#N"/></g><path d="M1003 0L516-638 353-469V0H162v-1349h191v673l572-673h225L646-777 1227 0h-224" id="aC"/><g id="K"><use transform="matrix(0.006510416666666667,0,0,0.006510416666666667,0,0)" xlink:href="#ay"/><use transform="matrix(0.006510416666666667,0,0,0.006510416666666667,8.001302083333334,0)" xlink:href="#aC"/><use transform="matrix(0.006510416666666667,0,0,0.006510416666666667,16.002604166666668,0)" xlink:href="#az"/></g></defs></g></svg>